<mxfile host="Electron" agent="Mozilla/5.0 (Windows NT 10.0; Win64; x64) AppleWebKit/537.36 (KHTML, like Gecko) draw.io/27.0.9 Chrome/134.0.6998.205 Electron/35.4.0 Safari/537.36" version="27.0.9" pages="2">
  <diagram name="ページ1" id="gV5EMgTUOLZqTu5XpO8b">
    <mxGraphModel dx="1713" dy="990" grid="1" gridSize="10" guides="1" tooltips="1" connect="1" arrows="1" fold="1" page="1" pageScale="1" pageWidth="827" pageHeight="1169" math="0" shadow="0">
      <root>
        <mxCell id="0" />
        <mxCell id="1" parent="0" />
        <mxCell id="IkgcLRmB3uLy0v5GrvIl-4" value="Frameworks&amp;Drivers" style="" parent="0" />
        <mxCell id="IkgcLRmB3uLy0v5GrvIl-11" value="driver" style="ellipse;whiteSpace=wrap;html=1;aspect=fixed;fillColor=#dae8fc;strokeColor=#6c8ebf;opacity=50;verticalAlign=top;fontSize=20;" parent="IkgcLRmB3uLy0v5GrvIl-4" vertex="1">
          <mxGeometry width="880" height="880" as="geometry" />
        </mxCell>
        <mxCell id="IkgcLRmB3uLy0v5GrvIl-5" value="InterfaceAdapters" parent="0" />
        <mxCell id="IkgcLRmB3uLy0v5GrvIl-12" value="controller" style="ellipse;whiteSpace=wrap;html=1;aspect=fixed;fillColor=#d5e8d4;strokeColor=#82b366;opacity=50;verticalAlign=top;fontSize=20;" parent="IkgcLRmB3uLy0v5GrvIl-5" vertex="1">
          <mxGeometry x="120" y="120" width="640" height="640" as="geometry" />
        </mxCell>
        <mxCell id="IkgcLRmB3uLy0v5GrvIl-7" value="ApplicationBusinessRules" parent="0" />
        <mxCell id="IkgcLRmB3uLy0v5GrvIl-14" value="usecase" style="ellipse;whiteSpace=wrap;html=1;aspect=fixed;fillColor=#f8cecc;strokeColor=#b85450;opacity=40;verticalAlign=top;fontSize=20;" parent="IkgcLRmB3uLy0v5GrvIl-7" vertex="1">
          <mxGeometry x="240" y="240" width="400" height="400" as="geometry" />
        </mxCell>
        <mxCell id="IkgcLRmB3uLy0v5GrvIl-8" value="EnterpriseBusinessRules" parent="0" />
        <mxCell id="IkgcLRmB3uLy0v5GrvIl-16" value="entity" style="ellipse;whiteSpace=wrap;html=1;aspect=fixed;fillColor=#fff2cc;strokeColor=#d6b656;opacity=40;verticalAlign=top;fontSize=20;" parent="IkgcLRmB3uLy0v5GrvIl-8" vertex="1">
          <mxGeometry x="360" y="360" width="160" height="160" as="geometry" />
        </mxCell>
      </root>
    </mxGraphModel>
  </diagram>
  <diagram id="EL7ZiqIALJYM71mT_H95" name="ページ2">
    <mxGraphModel dx="2998" dy="1732" grid="1" gridSize="10" guides="1" tooltips="1" connect="1" arrows="1" fold="1" page="1" pageScale="1" pageWidth="827" pageHeight="1169" math="0" shadow="0">
      <root>
        <mxCell id="0" />
        <mxCell id="1" style="" parent="0" />
        <mxCell id="Rw7Ih1JjTi2BGIQYU0lM-1" value="driver" style="rounded=0;whiteSpace=wrap;html=1;fillColor=#dae8fc;strokeColor=none;verticalAlign=top;allowArrows=0;connectable=0;opacity=80;" vertex="1" parent="1">
          <mxGeometry width="320" height="1120" as="geometry" />
        </mxCell>
        <mxCell id="Rw7Ih1JjTi2BGIQYU0lM-3" value="controller" style="rounded=0;whiteSpace=wrap;html=1;fillColor=#d5e8d4;strokeColor=none;verticalAlign=top;allowArrows=0;connectable=0;opacity=80;" vertex="1" parent="1">
          <mxGeometry x="320" width="320" height="1120" as="geometry" />
        </mxCell>
        <mxCell id="7lejcw3xw8LOQorNks__-1" value="usecase&lt;div&gt;inputport / interactor&lt;/div&gt;" style="rounded=0;whiteSpace=wrap;html=1;fillColor=#f8cecc;strokeColor=#b85450;verticalAlign=top;allowArrows=0;connectable=0;opacity=80;" vertex="1" parent="1">
          <mxGeometry x="640" width="680" height="1120" as="geometry" />
        </mxCell>
        <mxCell id="k2IsxOlhFxqPGmssjjtZ-1" value="entity" style="rounded=0;whiteSpace=wrap;html=1;fillColor=#fff2cc;strokeColor=#d6b656;verticalAlign=top;allowArrows=0;connectable=0;opacity=80;" vertex="1" parent="1">
          <mxGeometry x="1040" y="80" width="240" height="960" as="geometry" />
        </mxCell>
        <mxCell id="k2IsxOlhFxqPGmssjjtZ-84" value="controller" style="rounded=0;whiteSpace=wrap;html=1;fillColor=#d5e8d4;strokeColor=none;verticalAlign=top;allowArrows=0;connectable=0;opacity=80;" vertex="1" parent="1">
          <mxGeometry x="1320" width="400" height="1120" as="geometry" />
        </mxCell>
        <mxCell id="w5cxwKLCMmuiGW01TI7C-16" value="driver" style="rounded=0;whiteSpace=wrap;html=1;fillColor=#dae8fc;strokeColor=none;verticalAlign=top;allowArrows=0;connectable=0;opacity=80;" vertex="1" parent="1">
          <mxGeometry x="1720" width="400" height="1120" as="geometry" />
        </mxCell>
        <mxCell id="k2IsxOlhFxqPGmssjjtZ-2" value="名称未設定レイヤ" style="" parent="0" />
        <mxCell id="k2IsxOlhFxqPGmssjjtZ-3" value="&lt;div&gt;便宜上driverに配置&lt;/div&gt;main.py" style="rounded=0;whiteSpace=wrap;html=1;verticalAlign=top;" vertex="1" parent="k2IsxOlhFxqPGmssjjtZ-2">
          <mxGeometry x="40" y="40" width="120" height="560" as="geometry" />
        </mxCell>
        <mxCell id="k2IsxOlhFxqPGmssjjtZ-59" style="edgeStyle=orthogonalEdgeStyle;rounded=0;orthogonalLoop=1;jettySize=auto;html=1;exitX=0;exitY=0.25;exitDx=0;exitDy=0;entryX=1;entryY=0.25;entryDx=0;entryDy=0;endArrow=diamondThin;endFill=0;" edge="1" parent="k2IsxOlhFxqPGmssjjtZ-2" source="k2IsxOlhFxqPGmssjjtZ-13" target="k2IsxOlhFxqPGmssjjtZ-56">
          <mxGeometry relative="1" as="geometry" />
        </mxCell>
        <mxCell id="k2IsxOlhFxqPGmssjjtZ-13" value="&lt;div&gt;package: inputport&lt;/div&gt;AlartNotificationInputPort" style="swimlane;fontStyle=0;childLayout=stackLayout;horizontal=1;startSize=26;horizontalStack=0;resizeParent=1;resizeParentMax=0;resizeLast=0;collapsible=1;marginBottom=0;whiteSpace=wrap;html=1;swimlaneFillColor=default;gradientDirection=east;fillColor=#d5e8d4;strokeColor=default;gradientColor=#F8CECC;" vertex="1" parent="k2IsxOlhFxqPGmssjjtZ-2">
          <mxGeometry x="560" y="40" width="200" height="86" as="geometry" />
        </mxCell>
        <mxCell id="k2IsxOlhFxqPGmssjjtZ-39" value="+ __init__: type" style="text;strokeColor=none;fillColor=none;align=left;verticalAlign=top;spacingLeft=4;spacingRight=4;overflow=hidden;rotatable=0;points=[[0,0.5],[1,0.5]];portConstraint=eastwest;whiteSpace=wrap;html=1;" vertex="1" parent="k2IsxOlhFxqPGmssjjtZ-13">
          <mxGeometry y="26" width="200" height="30" as="geometry" />
        </mxCell>
        <mxCell id="k2IsxOlhFxqPGmssjjtZ-34" value="+ Execute: void" style="text;strokeColor=none;fillColor=none;align=left;verticalAlign=top;spacingLeft=4;spacingRight=4;overflow=hidden;rotatable=0;points=[[0,0.5],[1,0.5]];portConstraint=eastwest;whiteSpace=wrap;html=1;" vertex="1" parent="k2IsxOlhFxqPGmssjjtZ-13">
          <mxGeometry y="56" width="200" height="30" as="geometry" />
        </mxCell>
        <mxCell id="k2IsxOlhFxqPGmssjjtZ-31" style="edgeStyle=orthogonalEdgeStyle;rounded=0;orthogonalLoop=1;jettySize=auto;html=1;exitX=0;exitY=0.25;exitDx=0;exitDy=0;entryX=0.5;entryY=1;entryDx=0;entryDy=0;endArrow=block;endFill=0;" edge="1" parent="k2IsxOlhFxqPGmssjjtZ-2" source="k2IsxOlhFxqPGmssjjtZ-17" target="k2IsxOlhFxqPGmssjjtZ-13">
          <mxGeometry relative="1" as="geometry" />
        </mxCell>
        <mxCell id="k2IsxOlhFxqPGmssjjtZ-17" value="&lt;div&gt;package: interactor&lt;/div&gt;AlartNotifier" style="swimlane;fontStyle=0;childLayout=stackLayout;horizontal=1;startSize=26;horizontalStack=0;resizeParent=1;resizeParentMax=0;resizeLast=0;collapsible=1;marginBottom=0;whiteSpace=wrap;html=1;swimlaneFillColor=none;gradientDirection=east;fillColor=#f8cecc;strokeColor=#b85450;" vertex="1" parent="k2IsxOlhFxqPGmssjjtZ-2">
          <mxGeometry x="800" y="130" width="200" height="86" as="geometry" />
        </mxCell>
        <mxCell id="k2IsxOlhFxqPGmssjjtZ-18" value="+ __init__" style="text;strokeColor=default;fillColor=default;align=left;verticalAlign=top;spacingLeft=4;spacingRight=4;overflow=hidden;rotatable=0;points=[[0,0.5],[1,0.5]];portConstraint=eastwest;whiteSpace=wrap;html=1;" vertex="1" parent="k2IsxOlhFxqPGmssjjtZ-17">
          <mxGeometry y="26" width="200" height="30" as="geometry" />
        </mxCell>
        <mxCell id="k2IsxOlhFxqPGmssjjtZ-60" value="+ Execute: void" style="text;strokeColor=default;fillColor=default;align=left;verticalAlign=top;spacingLeft=4;spacingRight=4;overflow=hidden;rotatable=0;points=[[0,0.5],[1,0.5]];portConstraint=eastwest;whiteSpace=wrap;html=1;" vertex="1" parent="k2IsxOlhFxqPGmssjjtZ-17">
          <mxGeometry y="56" width="200" height="30" as="geometry" />
        </mxCell>
        <mxCell id="k2IsxOlhFxqPGmssjjtZ-30" style="edgeStyle=orthogonalEdgeStyle;rounded=0;orthogonalLoop=1;jettySize=auto;html=1;exitX=0;exitY=0.25;exitDx=0;exitDy=0;entryX=0.5;entryY=1;entryDx=0;entryDy=0;endArrow=block;endFill=0;" edge="1" parent="k2IsxOlhFxqPGmssjjtZ-2" source="k2IsxOlhFxqPGmssjjtZ-21" target="k2IsxOlhFxqPGmssjjtZ-13">
          <mxGeometry relative="1" as="geometry" />
        </mxCell>
        <mxCell id="k2IsxOlhFxqPGmssjjtZ-21" value="&lt;div&gt;&lt;div&gt;package: interactor&lt;/div&gt;&lt;/div&gt;AlartNotifierMock" style="swimlane;fontStyle=0;childLayout=stackLayout;horizontal=1;startSize=26;horizontalStack=0;resizeParent=1;resizeParentMax=0;resizeLast=0;collapsible=1;marginBottom=0;whiteSpace=wrap;html=1;swimlaneFillColor=none;gradientDirection=east;fillColor=#f8cecc;strokeColor=#b85450;" vertex="1" parent="k2IsxOlhFxqPGmssjjtZ-2">
          <mxGeometry x="800" y="240" width="200" height="86" as="geometry" />
        </mxCell>
        <mxCell id="k2IsxOlhFxqPGmssjjtZ-22" value="+ __int__" style="text;strokeColor=default;fillColor=default;align=left;verticalAlign=top;spacingLeft=4;spacingRight=4;overflow=hidden;rotatable=0;points=[[0,0.5],[1,0.5]];portConstraint=eastwest;whiteSpace=wrap;html=1;" vertex="1" parent="k2IsxOlhFxqPGmssjjtZ-21">
          <mxGeometry y="26" width="200" height="30" as="geometry" />
        </mxCell>
        <mxCell id="k2IsxOlhFxqPGmssjjtZ-61" value="+ Execute: void" style="text;strokeColor=default;fillColor=default;align=left;verticalAlign=top;spacingLeft=4;spacingRight=4;overflow=hidden;rotatable=0;points=[[0,0.5],[1,0.5]];portConstraint=eastwest;whiteSpace=wrap;html=1;" vertex="1" parent="k2IsxOlhFxqPGmssjjtZ-21">
          <mxGeometry y="56" width="200" height="30" as="geometry" />
        </mxCell>
        <mxCell id="k2IsxOlhFxqPGmssjjtZ-43" value="tcp_server" style="swimlane;fontStyle=0;childLayout=stackLayout;horizontal=1;startSize=26;horizontalStack=0;resizeParent=1;resizeParentMax=0;resizeLast=0;collapsible=1;marginBottom=0;whiteSpace=wrap;html=1;swimlaneFillColor=default;gradientDirection=east;fillColor=#dae8fc;strokeColor=#6c8ebf;" vertex="1" parent="k2IsxOlhFxqPGmssjjtZ-2">
          <mxGeometry x="120" y="80" width="160" height="116" as="geometry" />
        </mxCell>
        <mxCell id="k2IsxOlhFxqPGmssjjtZ-44" value="+ tcp_server" style="text;strokeColor=none;fillColor=none;align=left;verticalAlign=top;spacingLeft=4;spacingRight=4;overflow=hidden;rotatable=0;points=[[0,0.5],[1,0.5]];portConstraint=eastwest;whiteSpace=wrap;html=1;" vertex="1" parent="k2IsxOlhFxqPGmssjjtZ-43">
          <mxGeometry y="26" width="160" height="30" as="geometry" />
        </mxCell>
        <mxCell id="k2IsxOlhFxqPGmssjjtZ-45" value="+ start: void" style="text;strokeColor=none;fillColor=none;align=left;verticalAlign=top;spacingLeft=4;spacingRight=4;overflow=hidden;rotatable=0;points=[[0,0.5],[1,0.5]];portConstraint=eastwest;whiteSpace=wrap;html=1;" vertex="1" parent="k2IsxOlhFxqPGmssjjtZ-43">
          <mxGeometry y="56" width="160" height="30" as="geometry" />
        </mxCell>
        <mxCell id="w5cxwKLCMmuiGW01TI7C-51" value="+ hadle_request: void" style="text;strokeColor=none;fillColor=none;align=left;verticalAlign=top;spacingLeft=4;spacingRight=4;overflow=hidden;rotatable=0;points=[[0,0.5,0,0,0],[1,0.38,0,0,0],[1,0.73,0,0,0]];portConstraint=eastwest;whiteSpace=wrap;html=1;" vertex="1" parent="k2IsxOlhFxqPGmssjjtZ-43">
          <mxGeometry y="86" width="160" height="30" as="geometry" />
        </mxCell>
        <mxCell id="k2IsxOlhFxqPGmssjjtZ-67" style="edgeStyle=orthogonalEdgeStyle;rounded=0;orthogonalLoop=1;jettySize=auto;html=1;exitX=0;exitY=0.25;exitDx=0;exitDy=0;entryX=1;entryY=0.25;entryDx=0;entryDy=0;endArrow=diamondThin;endFill=0;" edge="1" parent="k2IsxOlhFxqPGmssjjtZ-2" source="k2IsxOlhFxqPGmssjjtZ-47" target="k2IsxOlhFxqPGmssjjtZ-64">
          <mxGeometry relative="1" as="geometry" />
        </mxCell>
        <mxCell id="k2IsxOlhFxqPGmssjjtZ-47" value="&lt;div&gt;package: inputport&lt;/div&gt;scenario_notifier" style="swimlane;fontStyle=0;childLayout=stackLayout;horizontal=1;startSize=26;horizontalStack=0;resizeParent=1;resizeParentMax=0;resizeLast=0;collapsible=1;marginBottom=0;whiteSpace=wrap;html=1;swimlaneFillColor=default;gradientDirection=east;fillColor=#d5e8d4;strokeColor=default;gradientColor=#F8CECC;" vertex="1" parent="k2IsxOlhFxqPGmssjjtZ-2">
          <mxGeometry x="560" y="520" width="200" height="86" as="geometry" />
        </mxCell>
        <mxCell id="k2IsxOlhFxqPGmssjjtZ-49" value="+ __init__" style="text;strokeColor=none;fillColor=none;align=left;verticalAlign=top;spacingLeft=4;spacingRight=4;overflow=hidden;rotatable=0;points=[[0,0.5],[1,0.5]];portConstraint=eastwest;whiteSpace=wrap;html=1;" vertex="1" parent="k2IsxOlhFxqPGmssjjtZ-47">
          <mxGeometry y="26" width="200" height="30" as="geometry" />
        </mxCell>
        <mxCell id="k2IsxOlhFxqPGmssjjtZ-48" value="+ Execute: void&amp;nbsp;" style="text;strokeColor=none;fillColor=none;align=left;verticalAlign=top;spacingLeft=4;spacingRight=4;overflow=hidden;rotatable=0;points=[[0,0.5],[1,0.5]];portConstraint=eastwest;whiteSpace=wrap;html=1;" vertex="1" parent="k2IsxOlhFxqPGmssjjtZ-47">
          <mxGeometry y="56" width="200" height="30" as="geometry" />
        </mxCell>
        <mxCell id="k2IsxOlhFxqPGmssjjtZ-50" style="edgeStyle=orthogonalEdgeStyle;rounded=0;orthogonalLoop=1;jettySize=auto;html=1;exitX=0;exitY=0.25;exitDx=0;exitDy=0;entryX=0.5;entryY=1;entryDx=0;entryDy=0;endArrow=block;endFill=0;" edge="1" source="k2IsxOlhFxqPGmssjjtZ-51" target="k2IsxOlhFxqPGmssjjtZ-47" parent="k2IsxOlhFxqPGmssjjtZ-2">
          <mxGeometry relative="1" as="geometry" />
        </mxCell>
        <mxCell id="k2IsxOlhFxqPGmssjjtZ-51" value="&lt;div&gt;&lt;div&gt;package: interactor&lt;/div&gt;&lt;/div&gt;scenario_notifier" style="swimlane;fontStyle=0;childLayout=stackLayout;horizontal=1;startSize=26;horizontalStack=0;resizeParent=1;resizeParentMax=0;resizeLast=0;collapsible=1;marginBottom=0;whiteSpace=wrap;html=1;swimlaneFillColor=none;gradientDirection=east;fillColor=#f8cecc;strokeColor=#b85450;" vertex="1" parent="k2IsxOlhFxqPGmssjjtZ-2">
          <mxGeometry x="800" y="610" width="200" height="86" as="geometry" />
        </mxCell>
        <mxCell id="k2IsxOlhFxqPGmssjjtZ-52" value="+ __init__" style="text;strokeColor=default;fillColor=default;align=left;verticalAlign=top;spacingLeft=4;spacingRight=4;overflow=hidden;rotatable=0;points=[[0,0.5],[1,0.5]];portConstraint=eastwest;whiteSpace=wrap;html=1;" vertex="1" parent="k2IsxOlhFxqPGmssjjtZ-51">
          <mxGeometry y="26" width="200" height="30" as="geometry" />
        </mxCell>
        <mxCell id="k2IsxOlhFxqPGmssjjtZ-62" value="+ Execute: void" style="text;strokeColor=default;fillColor=default;align=left;verticalAlign=top;spacingLeft=4;spacingRight=4;overflow=hidden;rotatable=0;points=[[0,0.5],[1,0.5]];portConstraint=eastwest;whiteSpace=wrap;html=1;" vertex="1" parent="k2IsxOlhFxqPGmssjjtZ-51">
          <mxGeometry y="56" width="200" height="30" as="geometry" />
        </mxCell>
        <mxCell id="k2IsxOlhFxqPGmssjjtZ-53" style="edgeStyle=orthogonalEdgeStyle;rounded=0;orthogonalLoop=1;jettySize=auto;html=1;exitX=0;exitY=0.25;exitDx=0;exitDy=0;entryX=0.5;entryY=1;entryDx=0;entryDy=0;endArrow=block;endFill=0;" edge="1" source="k2IsxOlhFxqPGmssjjtZ-54" target="k2IsxOlhFxqPGmssjjtZ-47" parent="k2IsxOlhFxqPGmssjjtZ-2">
          <mxGeometry relative="1" as="geometry" />
        </mxCell>
        <mxCell id="k2IsxOlhFxqPGmssjjtZ-54" value="&lt;div&gt;package: interactor&lt;/div&gt;scenario_notifier_mock" style="swimlane;fontStyle=0;childLayout=stackLayout;horizontal=1;startSize=26;horizontalStack=0;resizeParent=1;resizeParentMax=0;resizeLast=0;collapsible=1;marginBottom=0;whiteSpace=wrap;html=1;swimlaneFillColor=none;gradientDirection=east;fillColor=#f8cecc;strokeColor=#b85450;" vertex="1" parent="k2IsxOlhFxqPGmssjjtZ-2">
          <mxGeometry x="800" y="720" width="200" height="86" as="geometry" />
        </mxCell>
        <mxCell id="k2IsxOlhFxqPGmssjjtZ-55" value="+ __init__" style="text;strokeColor=default;fillColor=default;align=left;verticalAlign=top;spacingLeft=4;spacingRight=4;overflow=hidden;rotatable=0;points=[[0,0.5],[1,0.5]];portConstraint=eastwest;whiteSpace=wrap;html=1;" vertex="1" parent="k2IsxOlhFxqPGmssjjtZ-54">
          <mxGeometry y="26" width="200" height="30" as="geometry" />
        </mxCell>
        <mxCell id="k2IsxOlhFxqPGmssjjtZ-63" value="+ Execute: void" style="text;strokeColor=default;fillColor=default;align=left;verticalAlign=top;spacingLeft=4;spacingRight=4;overflow=hidden;rotatable=0;points=[[0,0.5],[1,0.5]];portConstraint=eastwest;whiteSpace=wrap;html=1;" vertex="1" parent="k2IsxOlhFxqPGmssjjtZ-54">
          <mxGeometry y="56" width="200" height="30" as="geometry" />
        </mxCell>
        <mxCell id="k2IsxOlhFxqPGmssjjtZ-68" style="edgeStyle=orthogonalEdgeStyle;rounded=0;orthogonalLoop=1;jettySize=auto;html=1;exitX=0;exitY=0.25;exitDx=0;exitDy=0;entryX=1;entryY=0.38;entryDx=0;entryDy=0;endArrow=diamondThin;endFill=0;entryPerimeter=0;" edge="1" parent="k2IsxOlhFxqPGmssjjtZ-2" source="k2IsxOlhFxqPGmssjjtZ-56" target="w5cxwKLCMmuiGW01TI7C-51">
          <mxGeometry relative="1" as="geometry">
            <mxPoint x="370" y="170" as="targetPoint" />
          </mxGeometry>
        </mxCell>
        <mxCell id="k2IsxOlhFxqPGmssjjtZ-56" value="AlartNotificationController" style="swimlane;fontStyle=0;childLayout=stackLayout;horizontal=1;startSize=26;horizontalStack=0;resizeParent=1;resizeParentMax=0;resizeLast=0;collapsible=1;marginBottom=0;whiteSpace=wrap;html=1;swimlaneFillColor=default;gradientDirection=east;fillColor=#d5e8d4;strokeColor=#82b366;" vertex="1" parent="k2IsxOlhFxqPGmssjjtZ-2">
          <mxGeometry x="360" y="40" width="160" height="86" as="geometry" />
        </mxCell>
        <mxCell id="k2IsxOlhFxqPGmssjjtZ-58" value="+ __init__" style="text;strokeColor=none;fillColor=none;align=left;verticalAlign=top;spacingLeft=4;spacingRight=4;overflow=hidden;rotatable=0;points=[[0,0.5],[1,0.5]];portConstraint=eastwest;whiteSpace=wrap;html=1;" vertex="1" parent="k2IsxOlhFxqPGmssjjtZ-56">
          <mxGeometry y="26" width="160" height="30" as="geometry" />
        </mxCell>
        <mxCell id="k2IsxOlhFxqPGmssjjtZ-57" value="+ Execute: void" style="text;strokeColor=none;fillColor=none;align=left;verticalAlign=top;spacingLeft=4;spacingRight=4;overflow=hidden;rotatable=0;points=[[0,0.5],[1,0.5]];portConstraint=eastwest;whiteSpace=wrap;html=1;" vertex="1" parent="k2IsxOlhFxqPGmssjjtZ-56">
          <mxGeometry y="56" width="160" height="30" as="geometry" />
        </mxCell>
        <mxCell id="k2IsxOlhFxqPGmssjjtZ-69" style="edgeStyle=orthogonalEdgeStyle;rounded=0;orthogonalLoop=1;jettySize=auto;html=1;exitX=0;exitY=0.25;exitDx=0;exitDy=0;entryX=1;entryY=0.73;entryDx=0;entryDy=0;endArrow=diamondThin;endFill=0;entryPerimeter=0;" edge="1" parent="k2IsxOlhFxqPGmssjjtZ-2" source="k2IsxOlhFxqPGmssjjtZ-64" target="w5cxwKLCMmuiGW01TI7C-51">
          <mxGeometry relative="1" as="geometry">
            <mxPoint x="370" y="180" as="targetPoint" />
          </mxGeometry>
        </mxCell>
        <mxCell id="k2IsxOlhFxqPGmssjjtZ-64" value="scenario_controller" style="swimlane;fontStyle=0;childLayout=stackLayout;horizontal=1;startSize=26;horizontalStack=0;resizeParent=1;resizeParentMax=0;resizeLast=0;collapsible=1;marginBottom=0;whiteSpace=wrap;html=1;swimlaneFillColor=default;gradientDirection=east;fillColor=#d5e8d4;strokeColor=#82b366;" vertex="1" parent="k2IsxOlhFxqPGmssjjtZ-2">
          <mxGeometry x="360" y="520" width="160" height="86" as="geometry" />
        </mxCell>
        <mxCell id="k2IsxOlhFxqPGmssjjtZ-65" value="+ __init__" style="text;strokeColor=none;fillColor=none;align=left;verticalAlign=top;spacingLeft=4;spacingRight=4;overflow=hidden;rotatable=0;points=[[0,0.5],[1,0.5]];portConstraint=eastwest;whiteSpace=wrap;html=1;" vertex="1" parent="k2IsxOlhFxqPGmssjjtZ-64">
          <mxGeometry y="26" width="160" height="30" as="geometry" />
        </mxCell>
        <mxCell id="k2IsxOlhFxqPGmssjjtZ-66" value="+ Execute: void" style="text;strokeColor=none;fillColor=none;align=left;verticalAlign=top;spacingLeft=4;spacingRight=4;overflow=hidden;rotatable=0;points=[[0,0.5],[1,0.5]];portConstraint=eastwest;whiteSpace=wrap;html=1;" vertex="1" parent="k2IsxOlhFxqPGmssjjtZ-64">
          <mxGeometry y="56" width="160" height="30" as="geometry" />
        </mxCell>
        <mxCell id="k2IsxOlhFxqPGmssjjtZ-73" style="edgeStyle=orthogonalEdgeStyle;rounded=0;orthogonalLoop=1;jettySize=auto;html=1;exitX=0;exitY=0.25;exitDx=0;exitDy=0;entryX=1;entryY=0.25;entryDx=0;entryDy=0;endArrow=diamondThin;endFill=0;" edge="1" parent="k2IsxOlhFxqPGmssjjtZ-2" source="k2IsxOlhFxqPGmssjjtZ-70" target="k2IsxOlhFxqPGmssjjtZ-17">
          <mxGeometry relative="1" as="geometry" />
        </mxCell>
        <mxCell id="k2IsxOlhFxqPGmssjjtZ-70" value="alart" style="swimlane;fontStyle=0;childLayout=stackLayout;horizontal=1;startSize=26;horizontalStack=0;resizeParent=1;resizeParentMax=0;resizeLast=0;collapsible=1;marginBottom=0;whiteSpace=wrap;html=1;swimlaneFillColor=none;gradientDirection=east;fillColor=#fff2cc;strokeColor=#d6b656;" vertex="1" parent="k2IsxOlhFxqPGmssjjtZ-2">
          <mxGeometry x="1080" y="130" width="160" height="146" as="geometry" />
        </mxCell>
        <mxCell id="k2IsxOlhFxqPGmssjjtZ-71" value="+ __init__" style="text;strokeColor=default;fillColor=default;align=left;verticalAlign=top;spacingLeft=4;spacingRight=4;overflow=hidden;rotatable=0;points=[[0,0.5],[1,0.5]];portConstraint=eastwest;whiteSpace=wrap;html=1;" vertex="1" parent="k2IsxOlhFxqPGmssjjtZ-70">
          <mxGeometry y="26" width="160" height="30" as="geometry" />
        </mxCell>
        <mxCell id="k2IsxOlhFxqPGmssjjtZ-72" value="+ severity: str" style="text;strokeColor=default;fillColor=default;align=left;verticalAlign=top;spacingLeft=4;spacingRight=4;overflow=hidden;rotatable=0;points=[[0,0.5],[1,0.5]];portConstraint=eastwest;whiteSpace=wrap;html=1;" vertex="1" parent="k2IsxOlhFxqPGmssjjtZ-70">
          <mxGeometry y="56" width="160" height="30" as="geometry" />
        </mxCell>
        <mxCell id="w5cxwKLCMmuiGW01TI7C-56" value="+ msg: str" style="text;strokeColor=default;fillColor=default;align=left;verticalAlign=top;spacingLeft=4;spacingRight=4;overflow=hidden;rotatable=0;points=[[0,0.5],[1,0.5]];portConstraint=eastwest;whiteSpace=wrap;html=1;" vertex="1" parent="k2IsxOlhFxqPGmssjjtZ-70">
          <mxGeometry y="86" width="160" height="30" as="geometry" />
        </mxCell>
        <mxCell id="w5cxwKLCMmuiGW01TI7C-57" value="+ occurnce_time: datetime" style="text;strokeColor=default;fillColor=default;align=left;verticalAlign=top;spacingLeft=4;spacingRight=4;overflow=hidden;rotatable=0;points=[[0,0.5],[1,0.5]];portConstraint=eastwest;whiteSpace=wrap;html=1;" vertex="1" parent="k2IsxOlhFxqPGmssjjtZ-70">
          <mxGeometry y="116" width="160" height="30" as="geometry" />
        </mxCell>
        <mxCell id="k2IsxOlhFxqPGmssjjtZ-77" style="edgeStyle=orthogonalEdgeStyle;rounded=0;orthogonalLoop=1;jettySize=auto;html=1;exitX=0;exitY=0.25;exitDx=0;exitDy=0;entryX=1;entryY=0.25;entryDx=0;entryDy=0;endArrow=diamondThin;endFill=0;" edge="1" parent="k2IsxOlhFxqPGmssjjtZ-2" source="k2IsxOlhFxqPGmssjjtZ-74" target="k2IsxOlhFxqPGmssjjtZ-51">
          <mxGeometry relative="1" as="geometry" />
        </mxCell>
        <mxCell id="k2IsxOlhFxqPGmssjjtZ-74" value="scenario_info" style="swimlane;fontStyle=0;childLayout=stackLayout;horizontal=1;startSize=26;horizontalStack=0;resizeParent=1;resizeParentMax=0;resizeLast=0;collapsible=1;marginBottom=0;whiteSpace=wrap;html=1;swimlaneFillColor=none;gradientDirection=east;fillColor=#fff2cc;strokeColor=#d6b656;" vertex="1" parent="k2IsxOlhFxqPGmssjjtZ-2">
          <mxGeometry x="1080" y="610" width="160" height="56" as="geometry" />
        </mxCell>
        <mxCell id="k2IsxOlhFxqPGmssjjtZ-75" value="+ __init__" style="text;strokeColor=default;fillColor=default;align=left;verticalAlign=top;spacingLeft=4;spacingRight=4;overflow=hidden;rotatable=0;points=[[0,0.5],[1,0.5]];portConstraint=eastwest;whiteSpace=wrap;html=1;" vertex="1" parent="k2IsxOlhFxqPGmssjjtZ-74">
          <mxGeometry y="26" width="160" height="30" as="geometry" />
        </mxCell>
        <mxCell id="k2IsxOlhFxqPGmssjjtZ-86" style="edgeStyle=orthogonalEdgeStyle;rounded=0;orthogonalLoop=1;jettySize=auto;html=1;exitX=0;exitY=0.25;exitDx=0;exitDy=0;entryX=1;entryY=0.25;entryDx=0;entryDy=0;endArrow=diamondThin;endFill=0;" edge="1" parent="k2IsxOlhFxqPGmssjjtZ-2" source="k2IsxOlhFxqPGmssjjtZ-87" target="k2IsxOlhFxqPGmssjjtZ-13">
          <mxGeometry relative="1" as="geometry">
            <mxPoint x="1760" y="59.5" as="sourcePoint" />
          </mxGeometry>
        </mxCell>
        <mxCell id="k2IsxOlhFxqPGmssjjtZ-87" value="&lt;div&gt;package: outputport&lt;/div&gt;AlartNotificationOutputPort" style="swimlane;fontStyle=0;childLayout=stackLayout;horizontal=1;startSize=26;horizontalStack=0;resizeParent=1;resizeParentMax=0;resizeLast=0;collapsible=1;marginBottom=0;whiteSpace=wrap;html=1;swimlaneFillColor=default;gradientDirection=east;fillColor=#f8cecc;strokeColor=#b85450;gradientColor=#D5E8D4;" vertex="1" parent="k2IsxOlhFxqPGmssjjtZ-2">
          <mxGeometry x="1240" y="40" width="200" height="86" as="geometry" />
        </mxCell>
        <mxCell id="k2IsxOlhFxqPGmssjjtZ-88" value="+ __init__: type" style="text;strokeColor=none;fillColor=none;align=left;verticalAlign=top;spacingLeft=4;spacingRight=4;overflow=hidden;rotatable=0;points=[[0,0.5],[1,0.5]];portConstraint=eastwest;whiteSpace=wrap;html=1;" vertex="1" parent="k2IsxOlhFxqPGmssjjtZ-87">
          <mxGeometry y="26" width="200" height="30" as="geometry" />
        </mxCell>
        <mxCell id="k2IsxOlhFxqPGmssjjtZ-89" value="+ Send: void" style="text;strokeColor=none;fillColor=none;align=left;verticalAlign=top;spacingLeft=4;spacingRight=4;overflow=hidden;rotatable=0;points=[[0,0.5],[1,0.5]];portConstraint=eastwest;whiteSpace=wrap;html=1;" vertex="1" parent="k2IsxOlhFxqPGmssjjtZ-87">
          <mxGeometry y="56" width="200" height="30" as="geometry" />
        </mxCell>
        <mxCell id="k2IsxOlhFxqPGmssjjtZ-90" style="edgeStyle=orthogonalEdgeStyle;rounded=0;orthogonalLoop=1;jettySize=auto;html=1;exitX=0;exitY=0.25;exitDx=0;exitDy=0;entryX=0.5;entryY=1;entryDx=0;entryDy=0;endArrow=block;endFill=0;" edge="1" parent="k2IsxOlhFxqPGmssjjtZ-2" source="w5cxwKLCMmuiGW01TI7C-35" target="k2IsxOlhFxqPGmssjjtZ-87">
          <mxGeometry relative="1" as="geometry">
            <mxPoint x="1549.9999999999995" y="501.5" as="sourcePoint" />
          </mxGeometry>
        </mxCell>
        <mxCell id="k2IsxOlhFxqPGmssjjtZ-94" style="edgeStyle=orthogonalEdgeStyle;rounded=0;orthogonalLoop=1;jettySize=auto;html=1;exitX=0;exitY=0.25;exitDx=0;exitDy=0;entryX=0.5;entryY=1;entryDx=0;entryDy=0;endArrow=block;endFill=0;" edge="1" parent="k2IsxOlhFxqPGmssjjtZ-2" source="w5cxwKLCMmuiGW01TI7C-38" target="k2IsxOlhFxqPGmssjjtZ-87">
          <mxGeometry relative="1" as="geometry">
            <mxPoint x="1549.9999999999995" y="621.5" as="sourcePoint" />
          </mxGeometry>
        </mxCell>
        <mxCell id="w5cxwKLCMmuiGW01TI7C-29" value="&lt;div&gt;package: driver&lt;/div&gt;&lt;div&gt;TcpSender&lt;/div&gt;" style="swimlane;fontStyle=0;childLayout=stackLayout;horizontal=1;startSize=26;horizontalStack=0;resizeParent=1;resizeParentMax=0;resizeLast=0;collapsible=1;marginBottom=0;whiteSpace=wrap;html=1;swimlaneFillColor=none;gradientDirection=east;fillColor=#dae8fc;strokeColor=#6c8ebf;" vertex="1" parent="k2IsxOlhFxqPGmssjjtZ-2">
          <mxGeometry x="1880" y="260" width="160" height="86" as="geometry" />
        </mxCell>
        <mxCell id="w5cxwKLCMmuiGW01TI7C-30" value="+ __init__" style="text;strokeColor=default;fillColor=default;align=left;verticalAlign=top;spacingLeft=4;spacingRight=4;overflow=hidden;rotatable=0;points=[[0,0.5],[1,0.5]];portConstraint=eastwest;whiteSpace=wrap;html=1;" vertex="1" parent="w5cxwKLCMmuiGW01TI7C-29">
          <mxGeometry y="26" width="160" height="30" as="geometry" />
        </mxCell>
        <mxCell id="w5cxwKLCMmuiGW01TI7C-31" value="+ send(): type" style="text;strokeColor=default;fillColor=default;align=left;verticalAlign=top;spacingLeft=4;spacingRight=4;overflow=hidden;rotatable=0;points=[[0,0.5],[1,0.5]];portConstraint=eastwest;whiteSpace=wrap;html=1;" vertex="1" parent="w5cxwKLCMmuiGW01TI7C-29">
          <mxGeometry y="56" width="160" height="30" as="geometry" />
        </mxCell>
        <mxCell id="w5cxwKLCMmuiGW01TI7C-32" value="&lt;div&gt;package: driver&lt;/div&gt;&lt;div&gt;RosTopicSender&lt;/div&gt;" style="swimlane;fontStyle=0;childLayout=stackLayout;horizontal=1;startSize=26;horizontalStack=0;resizeParent=1;resizeParentMax=0;resizeLast=0;collapsible=1;marginBottom=0;whiteSpace=wrap;html=1;swimlaneFillColor=none;gradientDirection=east;fillColor=#dae8fc;strokeColor=#6c8ebf;" vertex="1" parent="k2IsxOlhFxqPGmssjjtZ-2">
          <mxGeometry x="1880" y="480" width="160" height="86" as="geometry" />
        </mxCell>
        <mxCell id="w5cxwKLCMmuiGW01TI7C-33" value="+ __init__" style="text;strokeColor=default;fillColor=default;align=left;verticalAlign=top;spacingLeft=4;spacingRight=4;overflow=hidden;rotatable=0;points=[[0,0.5],[1,0.5]];portConstraint=eastwest;whiteSpace=wrap;html=1;" vertex="1" parent="w5cxwKLCMmuiGW01TI7C-32">
          <mxGeometry y="26" width="160" height="30" as="geometry" />
        </mxCell>
        <mxCell id="w5cxwKLCMmuiGW01TI7C-34" value="+ send(): type" style="text;strokeColor=default;fillColor=default;align=left;verticalAlign=top;spacingLeft=4;spacingRight=4;overflow=hidden;rotatable=0;points=[[0,0.5],[1,0.5]];portConstraint=eastwest;whiteSpace=wrap;html=1;" vertex="1" parent="w5cxwKLCMmuiGW01TI7C-32">
          <mxGeometry y="56" width="160" height="30" as="geometry" />
        </mxCell>
        <mxCell id="w5cxwKLCMmuiGW01TI7C-35" value="&lt;div&gt;package: preseter&lt;/div&gt;AlartPresenter" style="swimlane;fontStyle=0;childLayout=stackLayout;horizontal=1;startSize=26;horizontalStack=0;resizeParent=1;resizeParentMax=0;resizeLast=0;collapsible=1;marginBottom=0;whiteSpace=wrap;html=1;swimlaneFillColor=none;gradientDirection=east;fillColor=#d5e8d4;strokeColor=#82b366;" vertex="1" parent="k2IsxOlhFxqPGmssjjtZ-2">
          <mxGeometry x="1480" y="160" width="160" height="86" as="geometry" />
        </mxCell>
        <mxCell id="w5cxwKLCMmuiGW01TI7C-36" value="+ __init__" style="text;strokeColor=default;fillColor=default;align=left;verticalAlign=top;spacingLeft=4;spacingRight=4;overflow=hidden;rotatable=0;points=[[0,0.5],[1,0.5]];portConstraint=eastwest;whiteSpace=wrap;html=1;" vertex="1" parent="w5cxwKLCMmuiGW01TI7C-35">
          <mxGeometry y="26" width="160" height="30" as="geometry" />
        </mxCell>
        <mxCell id="w5cxwKLCMmuiGW01TI7C-37" value="+ Send: void" style="text;strokeColor=default;fillColor=default;align=left;verticalAlign=top;spacingLeft=4;spacingRight=4;overflow=hidden;rotatable=0;points=[[0,0.5],[1,0.5]];portConstraint=eastwest;whiteSpace=wrap;html=1;" vertex="1" parent="w5cxwKLCMmuiGW01TI7C-35">
          <mxGeometry y="56" width="160" height="30" as="geometry" />
        </mxCell>
        <mxCell id="w5cxwKLCMmuiGW01TI7C-38" value="&lt;div&gt;&lt;div&gt;package: presenter&lt;/div&gt;&lt;/div&gt;AlartPresenterMock" style="swimlane;fontStyle=0;childLayout=stackLayout;horizontal=1;startSize=26;horizontalStack=0;resizeParent=1;resizeParentMax=0;resizeLast=0;collapsible=1;marginBottom=0;whiteSpace=wrap;html=1;swimlaneFillColor=none;gradientDirection=east;fillColor=#d5e8d4;strokeColor=#82b366;" vertex="1" parent="k2IsxOlhFxqPGmssjjtZ-2">
          <mxGeometry x="1480" y="280" width="160" height="86" as="geometry" />
        </mxCell>
        <mxCell id="w5cxwKLCMmuiGW01TI7C-39" value="+ __int__" style="text;strokeColor=default;fillColor=default;align=left;verticalAlign=top;spacingLeft=4;spacingRight=4;overflow=hidden;rotatable=0;points=[[0,0.5],[1,0.5]];portConstraint=eastwest;whiteSpace=wrap;html=1;" vertex="1" parent="w5cxwKLCMmuiGW01TI7C-38">
          <mxGeometry y="26" width="160" height="30" as="geometry" />
        </mxCell>
        <mxCell id="w5cxwKLCMmuiGW01TI7C-40" value="+ Send: void&amp;nbsp;" style="text;strokeColor=default;fillColor=default;align=left;verticalAlign=top;spacingLeft=4;spacingRight=4;overflow=hidden;rotatable=0;points=[[0,0.5],[1,0.5]];portConstraint=eastwest;whiteSpace=wrap;html=1;" vertex="1" parent="w5cxwKLCMmuiGW01TI7C-38">
          <mxGeometry y="56" width="160" height="30" as="geometry" />
        </mxCell>
        <mxCell id="w5cxwKLCMmuiGW01TI7C-52" value="&lt;div&gt;package: driver&lt;/div&gt;&lt;div&gt;UdpSender&lt;/div&gt;" style="swimlane;fontStyle=0;childLayout=stackLayout;horizontal=1;startSize=26;horizontalStack=0;resizeParent=1;resizeParentMax=0;resizeLast=0;collapsible=1;marginBottom=0;whiteSpace=wrap;html=1;swimlaneFillColor=none;gradientDirection=east;fillColor=#dae8fc;strokeColor=#6c8ebf;" vertex="1" parent="k2IsxOlhFxqPGmssjjtZ-2">
          <mxGeometry x="1880" y="360" width="160" height="86" as="geometry" />
        </mxCell>
        <mxCell id="w5cxwKLCMmuiGW01TI7C-53" value="+ __init__" style="text;strokeColor=default;fillColor=default;align=left;verticalAlign=top;spacingLeft=4;spacingRight=4;overflow=hidden;rotatable=0;points=[[0,0.5],[1,0.5]];portConstraint=eastwest;whiteSpace=wrap;html=1;" vertex="1" parent="w5cxwKLCMmuiGW01TI7C-52">
          <mxGeometry y="26" width="160" height="30" as="geometry" />
        </mxCell>
        <mxCell id="w5cxwKLCMmuiGW01TI7C-54" value="+ send(): type" style="text;strokeColor=default;fillColor=default;align=left;verticalAlign=top;spacingLeft=4;spacingRight=4;overflow=hidden;rotatable=0;points=[[0,0.5],[1,0.5]];portConstraint=eastwest;whiteSpace=wrap;html=1;" vertex="1" parent="w5cxwKLCMmuiGW01TI7C-52">
          <mxGeometry y="56" width="160" height="30" as="geometry" />
        </mxCell>
        <mxCell id="w5cxwKLCMmuiGW01TI7C-59" value="&lt;div&gt;package: driver&lt;/div&gt;&lt;div&gt;BaseSender&lt;/div&gt;" style="swimlane;fontStyle=0;childLayout=stackLayout;horizontal=1;startSize=26;horizontalStack=0;resizeParent=1;resizeParentMax=0;resizeLast=0;collapsible=1;marginBottom=0;whiteSpace=wrap;html=1;swimlaneFillColor=default;gradientDirection=east;fillColor=#d5e8d4;strokeColor=#82b366;swimlaneLine=0;gradientColor=#6C8EBF;" vertex="1" parent="k2IsxOlhFxqPGmssjjtZ-2">
          <mxGeometry x="1680" y="160" width="160" height="86" as="geometry" />
        </mxCell>
        <mxCell id="w5cxwKLCMmuiGW01TI7C-60" value="+ __init__: type" style="text;strokeColor=none;fillColor=none;align=left;verticalAlign=top;spacingLeft=4;spacingRight=4;overflow=hidden;rotatable=0;points=[[0,0.5],[1,0.5]];portConstraint=eastwest;whiteSpace=wrap;html=1;" vertex="1" parent="w5cxwKLCMmuiGW01TI7C-59">
          <mxGeometry y="26" width="160" height="30" as="geometry" />
        </mxCell>
        <mxCell id="w5cxwKLCMmuiGW01TI7C-61" value="+ Send: void" style="text;strokeColor=none;fillColor=none;align=left;verticalAlign=top;spacingLeft=4;spacingRight=4;overflow=hidden;rotatable=0;points=[[0,0.5],[1,0.5]];portConstraint=eastwest;whiteSpace=wrap;html=1;" vertex="1" parent="w5cxwKLCMmuiGW01TI7C-59">
          <mxGeometry y="56" width="160" height="30" as="geometry" />
        </mxCell>
        <mxCell id="w5cxwKLCMmuiGW01TI7C-62" style="edgeStyle=orthogonalEdgeStyle;rounded=0;orthogonalLoop=1;jettySize=auto;html=1;exitX=0;exitY=0.25;exitDx=0;exitDy=0;entryX=1;entryY=0.25;entryDx=0;entryDy=0;endArrow=diamondThin;endFill=0;" edge="1" parent="k2IsxOlhFxqPGmssjjtZ-2" source="w5cxwKLCMmuiGW01TI7C-59" target="w5cxwKLCMmuiGW01TI7C-35">
          <mxGeometry relative="1" as="geometry">
            <mxPoint x="1250" y="155" as="sourcePoint" />
            <mxPoint x="1170" y="140" as="targetPoint" />
          </mxGeometry>
        </mxCell>
        <mxCell id="w5cxwKLCMmuiGW01TI7C-63" style="edgeStyle=orthogonalEdgeStyle;rounded=0;orthogonalLoop=1;jettySize=auto;html=1;exitX=0;exitY=0.25;exitDx=0;exitDy=0;endArrow=block;endFill=0;entryX=0.5;entryY=1;entryDx=0;entryDy=0;" edge="1" parent="k2IsxOlhFxqPGmssjjtZ-2" source="w5cxwKLCMmuiGW01TI7C-29" target="w5cxwKLCMmuiGW01TI7C-59">
          <mxGeometry relative="1" as="geometry">
            <mxPoint x="1750" y="226" as="sourcePoint" />
            <mxPoint x="1960" y="250" as="targetPoint" />
          </mxGeometry>
        </mxCell>
        <mxCell id="w5cxwKLCMmuiGW01TI7C-64" style="edgeStyle=orthogonalEdgeStyle;rounded=0;orthogonalLoop=1;jettySize=auto;html=1;exitX=0;exitY=0.25;exitDx=0;exitDy=0;endArrow=block;endFill=0;entryX=0.5;entryY=1;entryDx=0;entryDy=0;" edge="1" parent="k2IsxOlhFxqPGmssjjtZ-2" source="w5cxwKLCMmuiGW01TI7C-52" target="w5cxwKLCMmuiGW01TI7C-59">
          <mxGeometry relative="1" as="geometry">
            <mxPoint x="2190" y="252" as="sourcePoint" />
            <mxPoint x="2050" y="230" as="targetPoint" />
          </mxGeometry>
        </mxCell>
        <mxCell id="w5cxwKLCMmuiGW01TI7C-65" style="edgeStyle=orthogonalEdgeStyle;rounded=0;orthogonalLoop=1;jettySize=auto;html=1;exitX=0;exitY=0.25;exitDx=0;exitDy=0;endArrow=block;endFill=0;entryX=0.5;entryY=1;entryDx=0;entryDy=0;" edge="1" parent="k2IsxOlhFxqPGmssjjtZ-2" source="w5cxwKLCMmuiGW01TI7C-32" target="w5cxwKLCMmuiGW01TI7C-59">
          <mxGeometry relative="1" as="geometry">
            <mxPoint x="2230" y="426" as="sourcePoint" />
            <mxPoint x="1940" y="240" as="targetPoint" />
          </mxGeometry>
        </mxCell>
      </root>
    </mxGraphModel>
  </diagram>
</mxfile>
